<!-- <svg xmlns="https://www.google.com/url?sa=i&url=https%3A%2F%2Fwww.semana.com%2Fvida-moderna%2Farticulo%2Flas-razas-de-perros-mas-recomendables-para-tener-en-apartamentos%2F202139%2F&psig=AOvVaw1qZ3WI7hk-lMSZi9LDoM0P&ust=1623060271434000&source=images&cd=vfe&ved=0CAIQjRxqFwoTCPDplurggvECFQAAAAAdAAAAABAD" viewBox="0 0 556 134">
  <defs>
    <style>
      .cls-1 {
        fill: #1bbd93;
      }

      .cls-2 {
        fill: #3c4b64;
      }
    </style>
  </defs>
  <title>coreui vue</title>
  <g id="Warstwa_1" data-name="Warstwa 1">
    <g>
      <path class="cls-1" d="M347.9818,90.0869l-11.84-43.52-.0644-.1924q0-.5112.6406-.5117h1.2793a.66.66,0,0,1,.7051.5762l10.623,39.68c.042.0859.0859.1279.1289.1279.041,0,.084-.042.127-.1279l10.625-39.68a.657.657,0,0,1,.7031-.5762h1.2168a.54.54,0,0,1,.5762.7041l-11.9043,43.52a.6584.6584,0,0,1-.7041.5761h-1.4082A.6577.6577,0,0,1,347.9818,90.0869Z"/>
      <path class="cls-1" d="M382.2786,89.5751a10.9023,10.9023,0,0,1-4.3515-4.5439,14.4586,14.4586,0,0,1-1.5362-6.7842V46.5029a.5656.5656,0,0,1,.64-.64h1.2168a.5659.5659,0,0,1,.64.64v32a10.5488,10.5488,0,0,0,2.72,7.5527,10.36,10.36,0,0,0,14.3359,0,10.5493,10.5493,0,0,0,2.7207-7.5527v-32a.5655.5655,0,0,1,.64-.64h1.2159a.5666.5666,0,0,1,.6406.64V78.247a13.01,13.01,0,0,1-3.3926,9.376,11.8974,11.8974,0,0,1-9.0234,3.5527A12.8481,12.8481,0,0,1,382.2786,89.5751Z"/>
      <path class="cls-1" d="M439.5843,48.1035H419.5521a.2263.2263,0,0,0-.2559.2558V66.8554a.2259.2259,0,0,0,.2559.2559h13.8242a.5665.5665,0,0,1,.6406.64v.96a.5665.5665,0,0,1-.6406.6406H419.5521a.2263.2263,0,0,0-.2559.2559v18.56a.2259.2259,0,0,0,.2559.2559h20.0322a.5665.5665,0,0,1,.64.6406v.96a.5655.5655,0,0,1-.64.64H417.4407a.5654.5654,0,0,1-.6406-.64v-43.52a.5658.5658,0,0,1,.6406-.64h22.1436a.5659.5659,0,0,1,.64.64v.96A.5658.5658,0,0,1,439.5843,48.1035Z"/>
      <path class="cls-1" d="M454.5921,89.5117a2.8385,2.8385,0,0,1-.8-2.0489,2.9193,2.9193,0,0,1,.8-2.1113,2.7518,2.7518,0,0,1,2.0791-.832,2.8465,2.8465,0,0,1,2.9443,2.9433,2.7561,2.7561,0,0,1-.832,2.08,2.9208,2.9208,0,0,1-2.1123.8008A2.7521,2.7521,0,0,1,454.5921,89.5117Z"/>
      <path class="cls-1" d="M474.931,88.0078a11.3087,11.3087,0,0,1-3.2-8.4161v-5.44a.5655.5655,0,0,1,.64-.64h1.2158a.5662.5662,0,0,1,.6407.64v5.5039a9.1421,9.1421,0,0,0,2.5283,6.72,8.9734,8.9734,0,0,0,6.6875,2.5606,8.7916,8.7916,0,0,0,9.28-9.28V46.5029a.5655.5655,0,0,1,.64-.64h1.2158a.5656.5656,0,0,1,.64.64V79.5917a11.2541,11.2541,0,0,1-3.2315,8.4161,13.0621,13.0621,0,0,1-17.0556,0Z"/>
      <path class="cls-1" d="M512.8753,88.1035a10.4847,10.4847,0,0,1-3.36-8.128v-1.792a.5665.5665,0,0,1,.6406-.6406h1.0879a.5666.5666,0,0,1,.64.6406v1.6a8.5461,8.5461,0,0,0,2.752,6.6563,10.5361,10.5361,0,0,0,7.36,2.4961,9.8741,9.8741,0,0,0,6.9766-2.3682,8.2188,8.2188,0,0,0,2.56-6.3359,8.3952,8.3952,0,0,0-1.12-4.416,11.3752,11.3752,0,0,0-3.3281-3.3926,71.6866,71.6866,0,0,0-6.1758-3.7119,71.0151,71.0151,0,0,1-6.24-3.84,12.1824,12.1824,0,0,1-3.4238-3.68,10.2659,10.2659,0,0,1-1.28-5.3437,9.86,9.86,0,0,1,3.0723-7.7441,12.0126,12.0126,0,0,1,8.3193-2.752q5.6969,0,8.9609,3.1035a10.8247,10.8247,0,0,1,3.2637,8.2246v1.6a.5658.5658,0,0,1-.6406.64h-1.1514a.5651.5651,0,0,1-.64-.64V56.8076a8.8643,8.8643,0,0,0-2.6241-6.6885,9.9936,9.9936,0,0,0-7.2324-2.5274,9.37,9.37,0,0,0-6.5283,2.1436,7.8253,7.8253,0,0,0-2.3672,6.1123,7.8088,7.8088,0,0,0,1.0235,4.16,10.3978,10.3978,0,0,0,3.0078,3.039,63.0249,63.0249,0,0,0,5.9521,3.4883,70.7955,70.7955,0,0,1,6.72,4.2559,13.4613,13.4613,0,0,1,3.6485,3.9365,10.044,10.044,0,0,1,1.28,5.1836,10.7185,10.7185,0,0,1-3.2647,8.1924q-3.2637,3.0717-8.832,3.0722Q516.2342,91.1757,512.8753,88.1035Z"/>
    </g>
    <g>
      <g>
        <path class="cls-2" d="M99.367,36.0577l-39-22.5167a12,12,0,0,0-12,0l-39,22.5166a12.0337,12.0337,0,0,0-6,10.3924V91.4833a12.0331,12.0331,0,0,0,6,10.3923l39,22.5167a12,12,0,0,0,12,0l39-22.5167a12.0333,12.0333,0,0,0,6-10.3923V46.45A12.0336,12.0336,0,0,0,99.367,36.0577Zm-2,55.4256a4,4,0,0,1-2,3.4641l-39,22.5167a4.0006,4.0006,0,0,1-4,0l-39-22.5167a4,4,0,0,1-2-3.4641V46.45a4,4,0,0,1,2-3.4642l39-22.5166a4,4,0,0,1,4,0l39,22.5166a4,4,0,0,1,2,3.4642Z"/>
        <path class="cls-2" d="M77.3886,82.0046h-2.866a4.0007,4.0007,0,0,0-1.9247.4934L55.3172,91.9833,35.367,80.4648V57.4872l19.95-11.5185L72.606,55.4236a3.9993,3.9993,0,0,0,1.9192.4906h2.8632a2,2,0,0,0,2-2V51.2024a2,2,0,0,0-1.04-1.7547L59.16,38.9521a8.0389,8.0389,0,0,0-7.8427.09L31.3665,50.56a8.0245,8.0245,0,0,0-3.9995,6.9287v22.976a8,8,0,0,0,4,6.9283l19.95,11.5186a8.0427,8.0427,0,0,0,7.8432.0879l19.19-10.5312a2,2,0,0,0,1.0378-1.7533v-2.71A2,2,0,0,0,77.3886,82.0046Z"/>
      </g>
      <g>
        <path class="cls-2" d="M172.1117,45.3618a15.0166,15.0166,0,0,0-15,14.9995V77.6387a15,15,0,0,0,30,0V60.3613A15.0167,15.0167,0,0,0,172.1117,45.3618Zm7,32.2769a7,7,0,0,1-14,0V60.3613a7,7,0,0,1,14,0Z"/>
        <path class="cls-2" d="M135.4458,53.4211a7.01,7.01,0,0,1,7.8681,6.0752.9892.9892,0,0,0,.9842.865h6.03a1.0108,1.0108,0,0,0,.9987-1.0971,15.0182,15.0182,0,0,0-15.7161-13.8837A15.2881,15.2881,0,0,0,121.367,60.7968V77.2037A15.288,15.288,0,0,0,135.6112,92.62a15.0182,15.0182,0,0,0,15.7161-13.8842,1.0107,1.0107,0,0,0-.9987-1.0971h-6.03a.9892.9892,0,0,0-.9842.865,7.0106,7.0106,0,0,1-7.868,6.0757,7.1642,7.1642,0,0,1-6.0789-7.1849V60.6057A7.1638,7.1638,0,0,1,135.4458,53.4211Z"/>
        <path class="cls-2" d="M218.2891,72.9277a12.1584,12.1584,0,0,0,7.1843-11.0771V58.1494A12.1494,12.1494,0,0,0,213.324,46H196.367a1,1,0,0,0-1,1V91a1,1,0,0,0,1,1h6a1,1,0,0,0,1-1V74h6.6215l7.9154,17.4138a1,1,0,0,0,.91.5862h6.5912a1,1,0,0,0,.91-1.4138Zm-.8157-11.0771A4.1538,4.1538,0,0,1,213.3245,66h-9.8511V54h9.8511a4.1538,4.1538,0,0,1,4.1489,4.1494Z"/>
        <path class="cls-2" d="M260.367,46h-26a1,1,0,0,0-1,1V91a1,1,0,0,0,1,1h26a1,1,0,0,0,1-1V85a1,1,0,0,0-1-1h-19V72h13a1,1,0,0,0,1-1V65a1,1,0,0,0-1-1h-13V54h19a1,1,0,0,0,1-1V47A1,1,0,0,0,260.367,46Z"/>
        <path class="cls-2" d="M298.367,46h-6a1,1,0,0,0-1,1V69.6475a7.0066,7.0066,0,1,1-14,0V47a1,1,0,0,0-1-1h-6a1,1,0,0,0-1,1V69.6475a15.0031,15.0031,0,1,0,30,0V47A1,1,0,0,0,298.367,46Z"/>
        <rect class="cls-2" x="307.367" y="46" width="8" height="38" rx="1"/>
      </g>
    </g>
  </g>
</svg> -->
<?xml version="1.0" standalone="no"?>
<!DOCTYPE svg PUBLIC "-//W3C//DTD SVG 20010904//EN"
 "http://www.w3.org/TR/2001/REC-SVG-20010904/DTD/svg10.dtd">
<svg version="1.0" xmlns="http://www.w3.org/2000/svg"
 width="1159.000000pt" height="125.000000pt" viewBox="0 0 1159.000000 125.000000"
 preserveAspectRatio="xMidYMid meet">
<metadata>
Created by potrace 1.16, written by Peter Selinger 2001-2019
</metadata>
<g transform="translate(0.000000,125.000000) scale(0.100000,-0.100000)"
fill="#000000" stroke="none">
<path d="M10 625 l0 -625 5790 0 5790 0 0 625 0 625 -5790 0 -5790 0 0 -625z
m6797 576 c9 -1 13 -39 15 -138 l3 -138 52 -3 c32 -2 56 -9 65 -19 7 -9 58
-94 113 -190 55 -96 104 -175 109 -175 6 0 25 29 44 63 18 35 65 121 103 192
l70 127 79 0 c43 0 81 -3 83 -7 4 -7 -78 -157 -262 -481 l-63 -112 -57 0 -56
0 -129 215 c-71 119 -135 223 -142 233 -11 14 -13 -17 -14 -190 0 -115 -3
-208 -7 -208 -9 0 -66 89 -198 305 -50 83 -105 171 -121 197 l-29 48 -69 -3
-69 -2 -99 -165 c-54 -91 -133 -222 -175 -293 -42 -70 -74 -130 -71 -133 12
-11 151 -14 164 -3 8 6 28 36 45 65 l31 54 176 -2 177 -3 34 -57 34 -58 73 0
c110 0 104 7 104 -135 l0 -123 -122 -4 c-68 -3 -980 -6 -2028 -8 -1048 -2
-2002 -4 -2120 -4 -118 -1 -241 1 -273 2 l-57 4 0 568 0 568 23 5 c12 3 911 6
1997 7 1086 0 1975 2 1976 3 2 2 563 0 591 -2z m-5702 -586 l0 -570 -520 0
-520 0 -3 560 c-1 308 0 566 3 573 3 10 113 12 522 10 l518 -3 0 -570z m844
337 c17 -31 49 -172 40 -172 -5 0 -26 9 -46 20 -38 20 -38 20 -53 0 -8 -11
-25 -40 -38 -64 l-24 -44 40 -52 c50 -66 66 -122 60 -203 -7 -78 -33 -130 -92
-185 -70 -65 -146 -86 -257 -70 -140 19 -239 126 -241 261 -1 83 14 132 59
191 64 82 150 117 272 111 l76 -4 33 55 c17 31 32 61 32 68 0 7 -16 20 -36 30
-22 10 -33 21 -28 26 9 9 147 48 176 49 10 1 22 -7 27 -17z m6295 -28 c12 -5
16 -21 16 -70 l0 -64 -227 -2 -228 -3 -3 -37 -3 -38 63 -1 c35 0 97 -1 138 -2
l75 -2 3 -67 3 -68 -33 -1 c-18 0 -46 -2 -63 -3 -16 -1 -65 -3 -108 -4 l-78
-2 3 -47 3 -48 219 -2 c120 -1 225 -4 232 -7 15 -6 20 -111 6 -120 -13 -8
-579 -17 -607 -10 l-25 6 2 292 3 291 295 5 c162 3 296 6 297 8 1 1 8 -1 17
-4z m751 -64 l0 -65 -130 -5 -130 -5 -3 -227 -2 -228 -80 0 c-76 0 -80 1 -81
23 0 12 -1 94 -3 182 -1 88 -3 181 -4 208 l-2 47 -130 0 -130 0 0 64 c0 63 1
65 28 68 15 2 171 4 347 3 l320 0 0 -65z m917 -41 c66 -17 94 -115 38 -129
-84 -22 -80 -23 -80 10 l0 30 -151 0 -150 0 3 -42 3 -43 175 -5 c96 -3 182 -9
191 -13 31 -16 44 -57 42 -141 -1 -77 -3 -82 -32 -108 l-31 -28 -201 0 c-223
0 -249 6 -268 61 -22 65 -12 82 56 94 41 7 42 6 45 -27 l3 -33 105 0 c58 0
129 2 159 5 l54 5 0 40 0 40 -174 5 c-109 3 -182 10 -195 17 -33 19 -47 65
-42 143 4 80 22 107 79 120 51 11 328 11 371 -1z m776 -181 l2 -188 178 -2
177 -3 3 -33 c6 -58 4 -59 -245 -58 l-228 1 -3 225 c-1 123 0 231 3 238 3 9
21 12 57 10 l53 -3 3 -187z m-349 -154 c12 -12 4 -116 -10 -125 -20 -13 -117
-11 -125 2 -13 22 -5 114 12 126 16 11 111 9 123 -3z m1021 -3 c17 -33 12 -89
-11 -112 -17 -17 -28 -19 -67 -13 -26 3 -51 10 -56 15 -5 5 -10 31 -10 59 -1
61 9 70 81 70 42 0 54 -4 63 -19z"/>
<path d="M3688 913 l-56 -4 -171 -284 c-94 -156 -174 -291 -177 -300 -5 -13 7
-15 80 -15 l85 0 37 58 c20 31 42 60 48 64 13 9 292 9 324 0 13 -4 36 -30 55
-62 l33 -55 92 -3 c51 -1 92 0 92 3 0 5 -268 445 -336 553 -19 28 -37 51 -41
50 -5 -1 -34 -3 -65 -5z"/>
<path d="M4225 910 c-6 -10 -8 -134 -6 -368 l1 -233 78 3 77 3 3 173 c1 110 6
172 13 172 11 0 190 -148 337 -278 l83 -73 57 3 57 3 0 300 0 300 -69 3 c-38
2 -73 -1 -78 -6 -5 -5 -10 -70 -10 -143 0 -74 -3 -151 -7 -172 l-6 -37 -140
121 c-264 229 -269 233 -332 234 -30 0 -56 -2 -58 -5z"/>
<path d="M5167 913 c-3 -5 -5 -142 -4 -304 l2 -294 230 1 c206 0 237 2 300 22
136 41 199 129 199 277 1 68 -3 89 -27 137 -35 72 -89 118 -164 143 -48 16
-97 20 -294 23 -136 2 -239 0 -242 -5z m501 -168 c43 -26 67 -89 58 -152 -14
-106 -55 -127 -251 -127 l-140 -1 -3 120 c-2 65 -1 134 3 152 5 31 8 32 58 35
104 6 242 -8 275 -27z"/>
<path d="M3020 685 l0 -225 -37 -1 c-36 -1 -91 -1 -160 0 l-33 1 0 78 c0 43
-2 81 -5 84 -7 7 -148 -21 -158 -31 -5 -5 -8 -52 -5 -104 7 -166 30 -181 290
-179 197 1 224 8 258 65 18 30 20 52 20 285 l0 252 -85 0 -85 0 0 -225z"/>
<path d="M1555 641 c-85 -39 -131 -113 -123 -200 16 -167 223 -238 344 -117
63 62 79 138 45 211 -49 105 -166 152 -266 106z"/>
</g>
</svg>
